<?xml version="1.0" encoding="UTF-8" standalone="no"?>
<svg
   xmlns:dc="http://purl.org/dc/elements/1.1/"
   xmlns:cc="http://creativecommons.org/ns#"
   xmlns:rdf="http://www.w3.org/1999/02/22-rdf-syntax-ns#"
   xmlns:svg="http://www.w3.org/2000/svg"
   xmlns="http://www.w3.org/2000/svg"
   xmlns:sodipodi="http://sodipodi.sourceforge.net/DTD/sodipodi-0.dtd"
   xmlns:inkscape="http://www.inkscape.org/namespaces/inkscape"
   width="58.218678mm"
   height="7.7364774mm"
   viewBox="0 0 58.218678 7.7364774"
   version="1.1"
   id="svg8"
   inkscape:version="1.0.2-2 (e86c870879, 2021-01-15)"
   sodipodi:docname="WADSIC Logo.svg">
  <defs
     id="defs2" />
  <sodipodi:namedview
     id="base"
     pagecolor="#ffffff"
     bordercolor="#666666"
     borderopacity="1.0"
     inkscape:pageopacity="0.0"
     inkscape:pageshadow="2"
     inkscape:zoom="8"
     inkscape:cx="103.48711"
     inkscape:cy="26.384501"
     inkscape:document-units="mm"
     inkscape:current-layer="layer1"
     inkscape:document-rotation="0"
     showgrid="true"
     inkscape:window-width="5120"
     inkscape:window-height="1351"
     inkscape:window-x="-9"
     inkscape:window-y="-9"
     inkscape:window-maximized="1">
    <inkscape:grid
       type="xygrid"
       id="grid833"
       originx="-64.283165"
       originy="-133.81561" />
  </sodipodi:namedview>
  <metadata
     id="metadata5">
    <rdf:RDF>
      <cc:Work
         rdf:about="">
        <dc:format>image/svg+xml</dc:format>
        <dc:type
           rdf:resource="http://purl.org/dc/dcmitype/StillImage" />
        <dc:title></dc:title>
      </cc:Work>
    </rdf:RDF>
  </metadata>
  <g
     inkscape:label="Ebene 1"
     inkscape:groupmode="layer"
     id="layer1"
     transform="translate(-64.283164,-133.8156)">
    <g
       aria-label="WASDIC"
       id="text837"
       style="font-style:normal;font-weight:normal;font-size:10.5833px;line-height:1.25;font-family:sans-serif;fill:#000000;fill-opacity:1;stroke:none;stroke-width:0.264583">
      <path
         d="m 71.257559,133.81569 h -1.661578 v 6.41348 h -2.762242 c -0.539748,0 -0.814914,-0.24342 -0.814914,-0.75142 v -5.66206 h -1.735661 v 6.06423 c 0,1.11124 0.624415,1.67216 1.873244,1.67216 h 8.53014 c 1.248829,0 1.883827,-0.56092 1.883827,-1.67216 v -6.06423 h -1.746244 v 5.66206 c 0,0.508 -0.275166,0.75142 -0.814914,0.75142 h -2.751658 z"
         style="font-style:normal;font-variant:normal;font-weight:normal;font-stretch:normal;font-family:'Venus Rising';-inkscape-font-specification:'Venus Rising';stroke-width:0.264583"
         id="path839" />
      <path
         id="path841"
         style="font-style:normal;font-variant:normal;font-weight:normal;font-stretch:normal;font-family:'Venus Rising';-inkscape-font-specification:'Venus Rising';stroke-width:0.999999"
         d="m 302.40039,505.75977 c -4.71999,0 -7.08008,2.12031 -7.08008,6.32031 V 535 H 302 v -9.88086 h 22.40039 V 535 c 12.61328,0 25.22656,0 37.83984,0 5.35999,0 8.03907,-2.35917 8.03907,-7.11914 v -4.48047 c 0,-4.75997 -2.67908,-7.12109 -8.03907,-7.12109 h -16.7207 c -1.71999,0 -2.64062,-0.68 -2.64062,-2 v -1.59961 c 0,-1.28002 0.92063,-1.91992 2.64062,-1.91992 h 55.64063 c 2.23997,0 3.35937,1.04117 3.35937,3.20117 v 12.83984 c 0,2.16 -1.1194,3.19922 -3.35937,3.19922 h -18.96094 v -14 h -6.67969 v 19 h 27.83985 c 5.27995,0 7.88085,-2.35917 7.88085,-7.11914 v -15 c 0,-4.75998 -2.6009,-7.12109 -7.88085,-7.12109 h -59.95899 c -4.71998,0 -7.08008,1.96089 -7.08008,5.88085 v 3 c 0,3.91998 2.3601,5.87891 7.08008,5.87891 h 16.71875 c 2.35999,0 3.56055,1.08024 3.56055,3.24024 v 3.04101 c 0,2.12001 -1.20056,3.19922 -3.56055,3.19922 h -29.03906 v -17.91992 c 0,-4.2 -2.40111,-6.32031 -7.1211,-6.32031 z m 2.63867,5 h 16.28125 c 2.04,0 3.08008,0.95986 3.08008,2.83984 v 7.28125 H 302 v -7.28125 c 0,-1.87998 1.03907,-2.83984 3.03906,-2.83984 z"
         transform="scale(0.26458333)"
         sodipodi:nodetypes="ssccccccsssssssssssccccsssssssssssscssssssccss" />
      <path
         d="m 112.11964,133.81569 h -1.76742 v 7.73639 h 1.76742 z"
         style="font-style:normal;font-variant:normal;font-weight:normal;font-stretch:normal;font-family:'Venus Rising';-inkscape-font-specification:'Venus Rising';stroke-width:0.264583"
         id="path847" />
      <path
         d="m 115.43219,135.89001 c 0,-0.49741 0.27517,-0.75141 0.81492,-0.75141 h 6.25473 v -1.32291 h -6.95323 c -1.24883,0 -1.88383,0.56091 -1.88383,1.67216 v 4.39207 c 0,1.11124 0.635,1.67216 1.88383,1.67216 h 6.95323 v -1.32291 h -6.25473 c -0.53975,0 -0.81492,-0.24342 -0.81492,-0.75142 z"
         style="font-style:normal;font-variant:normal;font-weight:normal;font-stretch:normal;font-family:'Venus Rising';-inkscape-font-specification:'Venus Rising';stroke-width:0.264583"
         id="path849" />
    </g>
  </g>
</svg>
